<svg xmlns="http://www.w3.org/2000/svg" version="1.1" xmlns:xlink="http://www.w3.org/1999/xlink" xmlns:svgjs="http://svgjs.dev/svgjs" width="1000" height="186" viewBox="0 0 1000 186"><g transform="matrix(1,0,0,1,-0.6060537191502817,-0.3665010996851521)"><svg viewBox="0 0 396 74" data-background-color="#ffffff" preserveAspectRatio="xMidYMid meet" height="186" width="1000" xmlns="http://www.w3.org/2000/svg" xmlns:xlink="http://www.w3.org/1999/xlink"><g id="tight-bounds" transform="matrix(1,0,0,1,0.23999727278351202,0.1458122654661338)"><svg viewBox="0 0 395.52 73.70837546906775" height="73.70837546906775" width="395.52"><g><svg viewBox="0 0 534.6068847838955 99.62835000000001" height="73.70837546906775" width="395.52"><g><svg viewBox="0 0 534.6068847838955 99.62835000000001" height="99.62835000000001" width="534.6068847838955"><g id="textblocktransform"><svg viewBox="0 0 534.6068847838955 99.62835000000001" height="99.62835000000001" width="534.6068847838955" id="textblock"><g><svg viewBox="0 0 534.6068847838955 99.62835000000001" height="99.62835000000001" width="534.6068847838955"><g><svg><g></g><g></g></svg></g><g><svg><g><svg></svg></g><g></g></svg></g><g id="text-0"><svg viewBox="0 0 534.6068847838955 99.62835000000001" height="99.62835000000001" width="534.6068847838955"><g transform="matrix(1,0,0,1,0,29.389175000000005)"><svg width="98.14999999999999" viewBox="4.199999809265137 -36 98.13999938964844 36.400001525878906" height="36.4" data-palette-color="#1c4b82"><path d="M8.05-35.6L8.05-35.6 23.5-35.6Q28-35.6 28-33.35L28-33.35Q28-31.95 26.55-31.6L26.55-31.6Q25.4-32.95 22.9-32.95L22.9-32.95 8.55-32.95 8.55-19.65 20.1-19.65Q22.5-19.65 23.53-19.3 24.55-18.95 24.55-17.82 24.55-16.7 23.4-16.15L23.4-16.15Q22.3-16.9 19.75-16.9L19.75-16.9 8.55-16.9 8.55-2.55Q8.55-1.4 9.7-1.05L9.7-1.05Q8.9 0.4 7.55 0.4L7.55 0.4Q5.35 0.4 5.35-2.45L5.35-2.45 5.35-32.3Q5.35-33.45 4.2-33.9L4.2-33.9Q5.25-35.6 8.05-35.6ZM45.4-30.25L38.4-11.4 51.55-11.4 45.4-30.25ZM59.25-0.45L59.25-0.45Q58.65 0.4 57.5 0.4 56.35 0.4 55.72-0.18 55.1-0.75 54.65-2.2L54.65-2.2 52.4-8.85 37.4-8.85 35.05-2.85Q34.35-1.15 33.7-0.38 33.05 0.4 32.05 0.4 31.05 0.4 30.45-1.05L30.45-1.05Q31.45-1.45 32.05-3L32.05-3 44.2-33.5Q43.75-34.7 43.1-35.35L43.1-35.35Q44.15-36 45-36L45-36Q46.45-36 47.25-33.6L47.25-33.6 57.75-2.5Q58.25-0.95 59.25-0.45ZM67.89-33.15L67.89-33.15 67.89-2.55Q67.89-1.45 69.05-1.05L69.05-1.05Q68.25 0.4 66.89 0.4L66.89 0.4Q64.69 0.4 64.69-2.45L64.69-2.45 64.69-33Q64.69-34.15 63.55-34.55L63.55-34.55Q64.3-36 65.64-36L65.64-36Q67.89-36 67.89-33.15ZM81.44-32.9L81.44-17.65 88.84-17.65Q93.24-17.65 95.47-19.65 97.69-21.65 97.69-25.23 97.69-28.8 95.47-30.85 93.24-32.9 88.84-32.9L88.84-32.9 81.44-32.9ZM102.04-2L102.04-2Q102.19-2 102.34-2L102.34-2Q101.34 0.35 99.39 0.35L99.39 0.35Q98.24 0.35 97.49-0.28 96.74-0.9 95.34-2.75L95.34-2.75 86.44-15 81.49-15 81.49-2.55Q81.49-1.4 82.64-1.05L82.64-1.05Q81.84 0.4 80.49 0.4L80.49 0.4Q78.29 0.4 78.29-2.45L78.29-2.45 78.29-32.3Q78.29-33.45 77.14-33.9L77.14-33.9Q78.19-35.6 80.99-35.6L80.99-35.6 88.79-35.6Q94.59-35.6 97.89-32.88 101.19-30.15 101.19-25.5 101.19-20.85 98.39-18.18 95.59-15.5 90.59-15.05L90.59-15.05 99.54-3.3Q100.54-2 102.04-2Z" opacity="1" transform="matrix(1,0,0,1,0,0)" fill="#1c4b82" class="undefined-p-0"></path></svg></g><g><svg xmlns="http://www.w3.org/2000/svg" xmlns:xlink="http://www.w3.org/1999/xlink" version="1.1" x="113.83109999999999" y="0" viewBox="0.0015072822570800781 0 156.9959259033203 95" enable-background="new 0 0 157 95" xml:space="preserve" height="99.62835000000001" width="164.64468478389543" class="icon-s-0" data-fill-palette-color="accent" id="s-0"><g fill="#1c4b82" data-fill-palette-color="accent"><path d="M155.8 79.9c-0.9-1.2-23.4-28.7-72.4-45v-4.7c0-5.7 11.1-7.2 11.1-17.7C94.6 4.3 86.9 0 79.8 0c-8.6 0-13.3 5.3-13.3 5.3-1.2 1.2-2.6 4.1-0.7 6.9 2 2.8 5.8 1.5 6.8 0.6 0 0 3-2.7 6.1-2.7 2.4 0 4.6 1.6 4.6 3.8 0 5.4-9.9 6.9-9.9 15.5v5.6C24.4 51.2 2 78.7 1.1 79.9c-0.9 1.1-1.3 2.6-1 4 0.3 1.4 1.2 2.6 2.5 3.3C13.2 93 51.1 95 80.2 95c13.6 0 59-0.5 74.1-7.6 1.4-0.6 2.2-1.9 2.6-3.3C157.2 82.7 156.8 81.1 155.8 79.9zM80.2 85.2c-28 0-53.9-1.8-66.5-4.5 8.9-8.7 30-26.1 64.8-37.1 34.8 11.1 55.8 28.4 64.8 37.1C130.9 83.5 107.6 85.2 80.2 85.2z" fill="#1c4b82" data-fill-palette-color="accent"></path></g></svg></g><g transform="matrix(1,0,0,1,294.1568847838954,29.189175000000002)"><svg width="240.44999999999996" viewBox="3.299999952316284 -36.20000076293945 240.42999267578125 41.04999923706055" height="41.050000000000004" data-palette-color="#1c4b82"><path d="M29.4-30.35L29.4-30.35Q29.4-29.35 28.8-28.75 28.2-28.15 27.33-28.15 26.45-28.15 26.05-28.3L26.05-28.3Q26.1-28.55 26.1-28.75L26.1-28.75Q26.1-30.4 24.35-31.73 22.6-33.05 19.1-33.05L19.1-33.05Q14.25-33.05 10.58-29.08 6.9-25.1 6.9-17.85 6.9-10.6 10.1-6.58 13.3-2.55 19-2.55L19-2.55Q21.95-2.55 24.48-3.7 27-4.85 28.6-6.45L28.6-6.45Q29.4-6.35 29.4-5.25L29.4-5.25Q29.4-3.65 26.05-1.63 22.7 0.4 18.1 0.4L18.1 0.4Q11.8 0.4 7.55-4.38 3.3-9.15 3.3-17.3 3.3-25.45 8.18-30.73 13.05-36 20-36L20-36Q24.05-36 26.73-34.33 29.4-32.65 29.4-30.35ZM38.05-6.05L38.05-6.05 38.05-33Q38.05-34.15 36.9-34.55L36.9-34.55Q37.65-36 39.05-36L39.05-36Q41.25-36 41.25-33.15L41.25-33.15 41.25-5.95Q41.25-4.15 42.1-3.38 42.95-2.6 44.95-2.6L44.95-2.6 53.95-2.6Q56.5-2.6 57.65-4.7L57.65-4.7Q58.3-4.55 58.72-4 59.15-3.45 59.15-2.85L59.15-2.85Q59.15 0 53.85 0L53.85 0 45.1 0Q41.5 0 39.77-1.43 38.05-2.85 38.05-6.05ZM68.6-16.75Q69.25-9.5 72.95-5.85 76.65-2.2 81.82-2.2 87-2.2 90.3-6.8L90.3-6.8Q93-10.6 93-16.4L93-16.4Q93-17.5 92.9-18.75L92.9-18.75Q92.35-26.05 88.62-29.75 84.9-33.45 79.67-33.45 74.45-33.45 71.2-28.8L71.2-28.8Q68.5-25 68.5-19.3L68.5-19.3Q68.5-18.05 68.6-16.75L68.6-16.75ZM80.77-36Q87.55-36 91.8-31.15 96.05-26.3 96.05-17.93 96.05-9.55 91.77-4.58 87.5 0.4 80.75 0.4 74 0.4 69.7-4.5 65.4-9.4 65.4-17.78 65.4-26.15 69.7-31.08 74-36 80.77-36ZM103.59-35.6L103.59-35.6 123.09-35.6Q125.34-35.6 125.34-33.8L125.34-33.8Q125.34-32.9 124.69-32.25L124.69-32.25Q123.69-32.9 122.04-32.9L122.04-32.9 114.34-32.9 114.34-2.55Q114.34-1.45 115.49-1.05L115.49-1.05Q114.74 0.4 113.44 0.4L113.44 0.4Q111.14 0.4 111.14-2.45L111.14-2.45 111.14-32.9 102.49-32.9Q100.29-32.9 100.29-34.7L100.29-34.7Q100.29-35.65 100.94-36.2L100.94-36.2Q102.04-35.6 103.59-35.6ZM157.04-33.15L157.04-33.15 157.04-2.55Q157.04-1.45 158.19-1.05L158.19-1.05Q157.39 0.4 156.09 0.4L156.09 0.4Q153.89 0.4 153.89-2.45L153.89-2.45 153.89-16.45 133.69-16.45 133.69-2.55Q133.69-1.45 134.84-1.05L134.84-1.05Q134.04 0.4 132.69 0.4L132.69 0.4Q130.49 0.4 130.49-2.45L130.49-2.45 130.49-33Q130.49-34.15 129.34-34.55L129.34-34.55Q130.09-36 131.44-36L131.44-36Q133.69-36 133.69-33.15L133.69-33.15 133.69-19 153.89-19 153.89-33Q153.89-34.15 152.74-34.55L152.74-34.55Q153.39-36 154.79-36L154.79-36Q157.04-36 157.04-33.15ZM169.69-33.15L169.69-33.15 169.69-2.55Q169.69-1.45 170.84-1.05L170.84-1.05Q170.04 0.4 168.69 0.4L168.69 0.4Q166.49 0.4 166.49-2.45L166.49-2.45 166.49-33Q166.49-34.15 165.34-34.55L165.34-34.55Q166.09-36 167.44-36L167.44-36Q169.69-36 169.69-33.15ZM179.94-2.45L179.94-2.45 179.94-33Q179.94-34.15 178.79-34.55L178.79-34.55Q179.59-36 180.89-36 182.19-36 183.09-35.27 183.99-34.55 185.09-32.9L185.09-32.9 203.14-4.7 203.14-33Q203.14-34.15 201.99-34.55L201.99-34.55Q202.74-36 204.14-36L204.14-36Q206.34-36 206.34-33.15L206.34-33.15 206.34-2.55Q206.34-1.9 206.61-1.6 206.89-1.3 207.54-1.1L207.54-1.1Q206.74 0.4 205.34 0.4L205.34 0.4Q203.44 0.4 201.24-2.8L201.24-2.8 183.09-30.55 183.09-2.55Q183.09-1.45 184.24-1.05L184.24-1.05Q183.54 0.4 182.14 0.4L182.14 0.4Q179.94 0.4 179.94-2.45ZM241.58 4.85L241.58 4.85Q239.33 4.85 239.33 2.05L239.33 2.05 239.38-4.2Q237.78-2.4 235.18-1 232.58 0.4 229.58 0.4L229.58 0.4Q223.23 0.4 219.16-4.03 215.08-8.45 215.08-15.8L215.08-15.8Q215.08-24.8 220.23-30.4 225.38-36 233.28-36L233.28-36Q237.88-36 240.53-34.2 243.18-32.4 243.18-30L243.18-30Q243.18-29.05 242.58-28.45 241.98-27.85 241.18-27.85 240.38-27.85 239.83-28.05L239.83-28.05Q239.83-28.25 239.83-28.45L239.83-28.45Q239.83-30.3 238.01-31.68 236.18-33.05 232.48-33.05L232.48-33.05Q226.13-33.05 222.41-28.78 218.68-24.5 218.68-17.18 218.68-9.85 221.63-6.2 224.58-2.55 229.78-2.55L229.78-2.55Q232.58-2.55 234.86-3.68 237.13-4.8 239.48-7.15L239.48-7.15 239.58-16 236.23-16Q232.78-16 229.78-15.7L229.78-15.7Q229.28-16.2 229.28-16.8L229.28-16.8Q229.28-17.8 231.06-18.25 232.83-18.7 236.83-18.7 240.83-18.7 241.78-18.15 242.73-17.6 242.73-16.05L242.73-16.05 242.58 1.9Q242.58 3 243.73 3.4L243.73 3.4Q243.03 4.85 241.58 4.85Z" opacity="1" transform="matrix(1,0,0,1,0,0)" fill="#1c4b82" class="undefined-p-1"></path></svg></g></svg></g></svg></g></svg></g></svg></g></svg></g><defs></defs></svg><rect width="395.52" height="73.70837546906775" fill="none" stroke="none" visibility="hidden"></rect></g></svg></g></svg>